<?xml version="1.0" encoding="UTF-8"?>
<svg width="544px" height="656px" viewBox="0 0 544 656" version="1.1" xmlns="http://www.w3.org/2000/svg" xmlns:xlink="http://www.w3.org/1999/xlink">
    <title>Group</title>
    <g id="Page-1" stroke="none" stroke-width="1" fill="none" fill-rule="evenodd">
        <g id="Group" transform="translate(10.911874, 10.196624)" stroke="#000000">
            <path d="M220.141471,113.935242 C245.777457,32.8284611 271.093009,-4.97536681 296.088126,0.523758348 C309.598404,3.49612713 310.82671,22.6077451 316.461173,32.9994664 C319.654342,38.8886746 324.379766,47.4909586 330.637443,58.8063185 C290.543082,90.7455797 276.271191,112.667745 287.821769,124.572815 C289.939588,126.755631 297.458633,136.626755 322.104972,160.34607 C357.476536,194.387201 419.837395,238.097087 462.382072,293.803376 C503.352431,347.448316 524.613984,412.557248 522.754569,473.539948 C521.816378,504.30955 492.762237,567.294833 427.242301,601.396759 C410.160114,610.287725 352.476343,634.949424 261.728806,635.41684 C234.856001,635.555254 188.85466,629.413938 123.724784,616.99289 C87.7967383,600.591317 63.0491187,584.347563 49.4819251,568.261628 C35.9147316,552.175692 20.3320086,520.601799 2.73375618,473.539948 C-0.911252059,433.71197 -0.911252059,404.957148 2.73375618,387.275483 C8.54690399,359.076332 28.0135705,328.425837 37.1510841,311.289671 C54.882817,278.036213 96.316482,232.901418 161.452079,175.885285 L220.141471,113.935242 Z" id="Path" stroke-width="20" fill="#A9B4E4"></path>
            <path d="M245.931754,200.21027 L245.930813,206.12627 L246.026813,208.25927 L248.894882,210.480826 C346.269453,286.030624 403.186611,340.869261 419.646355,374.996738 C435.682917,408.246793 441.461358,434.116791 434.574578,464.147004 C427.687798,494.177216 404.152183,519.857474 376.004083,531.65445 C339.833846,546.813533 287.258221,549.431527 261.43015,549.737513 L261.433472,549.771798 C261.433472,549.771862 253.260307,550.150386 240.50107,549.714831 C236.815523,549.760669 231.258983,549.830721 223.829373,549.924386 L223.902079,548.779549 C201.235394,546.995497 171.945404,542.577183 146.698769,531.97845 C118.570112,520.169821 95.0507546,494.464194 88.168732,464.404317 C81.2867094,434.344439 87.0611585,408.448885 103.086643,375.165986 C119.701163,340.659733 167.279216,283.493067 245.820803,203.665986 L245.704813,203.78227 L245.931754,200.21027 Z" id="Combined-Shape" stroke-width="20" fill="#E76691"></path>
            <path d="M263.260126,577.431376 L263.260126,608.671376 L256.880126,608.671376 L256.880126,577.431376 L263.260126,577.431376 Z M293.488126,577.431376 L293.488126,588.915376 L289.836126,588.915376 L289.836126,581.039376 L276.196126,581.039376 L276.196126,605.063376 L288.604126,605.063376 L288.604126,595.075376 L279.144126,595.075376 L279.144126,591.467376 L294.192126,591.467376 L294.192126,608.671376 L270.256126,608.671376 L270.256126,577.431376 L293.488126,577.431376 Z M251.688126,577.255376 L251.688126,580.863376 L232.988126,580.863376 L232.988126,590.499376 L252.084126,590.499376 L252.084126,594.063376 L232.988126,594.063376 L232.988126,608.495376 L226.432126,608.495376 L226.432126,577.255376 L251.688126,577.255376 Z" id="Combined-Shape" fill="#000000" fill-rule="nonzero"></path>
            <path d="M301.588126,478.303376 C305.177977,478.303376 308.427977,479.75845 310.780514,482.110988 C313.133052,484.463525 314.588126,487.713525 314.588126,491.303376 C314.588126,494.893227 313.133052,498.143227 310.780514,500.495764 C308.427977,502.848301 305.177977,504.303376 301.588126,504.303376 C297.998275,504.303376 294.748275,502.848301 292.395738,500.495764 C290.043201,498.143227 288.588126,494.893227 288.588126,491.303376 C288.588126,487.713525 290.043201,484.463525 292.395738,482.110988 C294.748275,479.75845 297.998275,478.303376 301.588126,478.303376 Z M185.766169,478.893944 C189.288825,477.30929 195.129615,477.77662 203.266153,480.188265 C205.836313,484.310839 207.154551,487.411689 207.154551,489.501846 C207.154551,491.595934 205.830874,494.691561 203.250116,498.800012 C197.433085,501.210284 192.772811,501.685694 189.28101,500.127739 C185.785246,498.568015 183.514684,494.971893 182.385696,489.421448 C181.821243,486.646425 181.818689,484.36668 182.407713,482.585594 C182.973081,480.876039 184.093548,479.646367 185.766169,478.893944 Z M252.789512,453.300213 C255.067298,452.98783 256.840493,453.292932 258.083872,454.285156 C259.326962,455.277148 260.015592,456.936347 260.212155,459.222737 C260.420265,461.643444 260.071739,464.751398 259.178588,468.547026 C258.290688,472.320338 257.138835,475.156061 255.70335,477.043651 C254.34708,478.827077 252.738946,479.741235 250.859111,479.741235 C246.911559,479.741235 241.920475,475.917393 235.834315,468.475676 C235.743386,465.283782 236.142469,462.954486 237.088387,461.509755 C238.062722,460.021622 240.354289,458.313391 243.925581,456.351809 C247.429124,454.651308 250.382761,453.630282 252.789512,453.300213 Z M383.588126,453.303376 C386.34955,453.303376 388.84955,454.422664 390.659194,456.232308 C392.468838,458.041952 393.588126,460.541952 393.588126,463.303376 C393.588126,466.064799 392.468838,468.564799 390.659194,470.374443 C388.84955,472.184088 386.34955,473.303376 383.588126,473.303376 C380.826703,473.303376 378.326703,472.184088 376.517058,470.374443 C374.707414,468.564799 373.588126,466.064799 373.588126,463.303376 C373.588126,460.541952 374.707414,458.041952 376.517058,456.232308 C378.326703,454.422664 380.826703,453.303376 383.588126,453.303376 Z M134.545062,429.108701 C136.363015,428.183713 138.495609,428.195539 140.937118,429.093489 C143.478661,430.028231 146.341779,431.91274 149.533546,434.73328 C151.082158,436.977692 151.889447,438.779153 151.889447,440.150961 C151.889447,441.528091 151.081046,443.422763 149.525491,445.846114 C144.399558,450.244048 140.637495,452.310586 138.23576,451.772398 C136.982679,451.491604 135.985123,450.956029 134.725042,450.288011 C134.002962,449.905208 133.198916,449.479147 132.224569,449.028624 C131.74251,448.805727 131.053257,448.697414 130.315771,448.59216 C129.391646,448.460267 128.365833,448.346257 127.734434,447.81895 C127.347288,447.495629 127.16338,446.993642 127.255494,446.236228 C128.403246,436.798739 130.77427,431.027307 134.545062,429.108701 Z M292.869759,428.203679 C298.686789,425.793407 303.347063,425.317998 306.838865,426.875953 C310.334629,428.435676 312.605191,432.031799 313.734179,437.582244 C314.298632,440.357267 314.301185,442.637012 313.712162,444.418097 C313.146793,446.127653 312.026326,447.357325 310.353705,448.109748 C306.83105,449.694401 300.99026,449.227071 292.853721,446.815426 C290.283562,442.692852 288.965324,439.592003 288.965324,437.501846 C288.965324,435.407758 290.289,432.312131 292.869759,428.203679 Z M194.640336,398.327605 C197.415358,397.763151 199.695103,397.760598 201.476189,398.349622 C203.185744,398.91499 204.415416,400.035457 205.167839,401.708078 C206.752493,405.230733 206.285163,411.071523 203.873518,419.208062 C199.750944,421.778221 196.650094,423.096459 194.559937,423.096459 C192.465849,423.096459 189.370222,421.772783 185.261771,419.192025 C182.851499,413.374994 182.376089,408.71472 183.934045,405.222919 C185.493768,401.727154 189.08989,399.456592 194.640336,398.327605 Z M348.643686,398.349622 C350.424771,397.760598 352.704516,397.763151 355.479539,398.327605 C361.029985,399.456592 364.626107,401.727154 366.18583,405.222919 C367.743977,408.71515 367.268259,413.376141 364.85656,419.193536 C360.748888,421.773109 357.653767,423.096459 355.559937,423.096459 C353.469651,423.096459 350.368547,421.778058 346.245317,419.206339 C343.834654,411.070805 343.367479,405.230517 344.952036,401.708078 C345.704458,400.035457 346.93413,398.91499 348.643686,398.349622 Z M301.588126,370.303376 C305.177977,370.303376 308.427977,371.75845 310.780514,374.110988 C313.133052,376.463525 314.588126,379.713525 314.588126,383.303376 C314.588126,386.893227 313.133052,390.143227 310.780514,392.495764 C308.427977,394.848301 305.177977,396.303376 301.588126,396.303376 C297.998275,396.303376 294.748275,394.848301 292.395738,392.495764 C290.043201,390.143227 288.588126,386.893227 288.588126,383.303376 C288.588126,379.713525 290.043201,376.463525 292.395738,374.110988 C294.748275,371.75845 297.998275,370.303376 301.588126,370.303376 Z M165.588126,345.303376 C169.177977,345.303376 172.427977,346.75845 174.780514,349.110988 C177.133052,351.463525 178.588126,354.713525 178.588126,358.303376 C178.588126,361.893227 177.133052,365.143227 174.780514,367.495764 C172.427977,369.848301 169.177977,371.303376 165.588126,371.303376 C161.998275,371.303376 158.748275,369.848301 156.395738,367.495764 C154.043201,365.143227 152.588126,361.893227 152.588126,358.303376 C152.588126,354.713525 154.043201,351.463525 156.395738,349.110988 C158.748275,346.75845 161.998275,345.303376 165.588126,345.303376 Z M246.032976,345.250543 C249.22487,345.159614 251.554166,345.558697 252.998898,346.504616 C254.48703,347.47895 256.195261,349.770518 258.156844,353.341809 C259.857344,356.845353 260.87837,359.79899 261.208439,362.20574 C261.520822,364.483526 261.21572,366.256721 260.223497,367.500101 C259.231504,368.74319 257.572305,369.43182 255.285916,369.628383 C252.865209,369.836493 249.757255,369.487967 245.961626,368.594816 C242.188314,367.706916 239.352591,366.555064 237.465002,365.119579 C235.681575,363.763309 234.767417,362.155174 234.767417,360.27534 C234.767417,356.327788 238.59126,351.336704 246.032976,345.250543 Z M318.766169,318.893944 C322.288825,317.30929 328.129615,317.77662 336.266153,320.188265 C338.836313,324.310839 340.154551,327.411689 340.154551,329.501846 C340.154551,331.595934 338.830874,334.691561 336.250116,338.800012 C330.433085,341.210284 325.772811,341.685694 322.28101,340.127739 C318.785246,338.568015 316.514684,334.971893 315.385696,329.421448 C314.821243,326.646425 314.818689,324.36668 315.407713,322.585594 C315.973081,320.876039 317.093548,319.646367 318.766169,318.893944 Z M211.869759,294.203679 C217.686789,291.793407 222.347063,291.317998 225.838865,292.875953 C229.334629,294.435676 231.605191,298.031799 232.734179,303.582244 C233.298632,306.357267 233.301185,308.637012 232.712162,310.418097 C232.146793,312.127653 231.026326,313.357325 229.353705,314.109748 C225.83105,315.694401 219.99026,315.227071 211.853721,312.815426 C209.283562,308.692852 207.965324,305.592003 207.965324,303.501846 C207.965324,301.407758 209.289,298.312131 211.869759,294.203679 Z M272.577669,262.804773 C273.954799,262.804773 275.849471,263.613173 278.272822,265.168729 C282.670756,270.294662 284.737294,274.056725 284.199106,276.45846 C283.918312,277.711541 283.382738,278.709097 282.714719,279.969178 C282.331916,280.691257 281.905855,281.495304 281.455332,282.469651 C281.232435,282.951709 281.124122,283.640963 281.019967,284.371133 C280.822552,285.621777 280.65249,286.490163 280.173363,287.017325 C279.848116,287.375181 279.365145,287.524125 278.662937,287.438726 C269.225447,286.290974 263.454015,283.91995 261.535409,280.149158 C260.610421,278.331205 260.622247,276.19861 261.520198,273.757102 C262.45494,271.215558 264.339448,268.352441 267.159988,265.160674 C269.4044,263.612061 271.205861,262.804773 272.577669,262.804773 Z" id="Combined-Shape" fill="#000000"></path>
        </g>
    </g>
</svg>